<svg xmlns="http://www.w3.org/2000/svg" viewBox="0 0 20 20"><path d="M3.81 13l-.29 1.56-.29 1.56a.28.28 0 0 0 .12.29h.33l1.44-1 1.44-1a7.53 7.53 0 0 0 3.82 0 5.39 5.39 0 0 0 1.24.48 5.73 5.73 0 0 0 2.87 0l1.08.72 1.08.72h.31a.28.28 0 0 0 .11-.12.28.28 0 0 0 0-.16L16.85 15l-.21-1.16a4.29 4.29 0 0 0 1-1.37 3.82 3.82 0 0 0 .35-1.6A4 4 0 0 0 17 8.2a5.11 5.11 0 0 0-2.62-1.53 6 6 0 0 0-2.4-2.29 7.26 7.26 0 0 0-3.48-.86 7 7 0 0 0-4.59 1.65A5.25 5.25 0 0 0 2 9.14a5 5 0 0 0 .47 2.1A5.58 5.58 0 0 0 3.81 13m13.42-2.22a3.06 3.06 0 0 1-.31 1.34 3.55 3.55 0 0 1-.9 1.14.26.26 0 0 0-.08.11.26.26 0 0 0 0 .14l.16.86.16.86-.8-.54-.8-.54h-.22a4.78 4.78 0 0 1-.67.14 4.87 4.87 0 0 1-.68 0 4.54 4.54 0 0 1-2.94-1 3.27 3.27 0 0 1-1.22-2.49 3.27 3.27 0 0 1 1.22-2.49 4.68 4.68 0 0 1 5.87 0 3.27 3.27 0 0 1 1.22 2.49M8.56 4.32a6.34 6.34 0 0 1 2.76.63 5.32 5.32 0 0 1 2 1.69h-.55a5.09 5.09 0 0 0-3.33 1.2 3.82 3.82 0 0 0-1.35 2.86 3.61 3.61 0 0 0 .43 1.71 4.22 4.22 0 0 0 1.17 1.35 6.67 6.67 0 0 1-1.48.09 6.41 6.41 0 0 1-1.46-.25H6.52l-1.14.77-1.14.77.23-1.23.23-1.23a.27.27 0 0 0-.09-.25 4.8 4.8 0 0 1-1.21-1.54 4.15 4.15 0 0 1-.4-1.8 4.43 4.43 0 0 1 1.6-3.37 6.11 6.11 0 0 1 4-1.4" fill-rule="evenodd"/></svg>