<svg xmlns="http://www.w3.org/2000/svg" viewBox="0 0 20 20"><path d="M9.95 6.18a1.1 1.1 0 1 1-1.15 1.1 1.12 1.12 0 0 1 1.15-1.1M3.71 9.43a.77.77 0 1 1-.8.77.78.78 0 0 1 .8-.77M7.17 11.27a.77.77 0 1 1-.8.77.78.78 0 0 1 .8-.77M9.83 12.81a.65.65 0 1 1-.68.65.66.66 0 0 1 .68-.65M6.8 15.06a.5.5 0 1 1-.52.5.51.51 0 0 1 .52-.5M9.76 15.91a.42.42 0 1 1-.43.42.43.43 0 0 1 .43-.42M4.37 12.77a.65.65 0 1 1-.68.65.66.66 0 0 1 .68-.65M4.49 6.44a1.1 1.1 0 1 1 0 2.2 1.1 1.1 0 1 1 0-2.2M15.2 6.44a1.1 1.1 0 1 1-1.2 1.1 1.12 1.12 0 0 1 1.15-1.1M6.87 4.09a1.1 1.1 0 1 1-1.15 1.1 1.12 1.12 0 0 1 1.15-1.1M12.94 4.09a1.1 1.1 0 1 1-1.15 1.1 1.12 1.12 0 0 1 1.15-1.1M12.57 7.81a1.1 1.1 0 1 1-1.15 1.1 1.12 1.12 0 0 1 1.15-1.1M12.57 10.94A1.1 1.1 0 1 1 11.42 12a1.12 1.12 0 0 1 1.15-1.1M15.94 9.43a1.1 1.1 0 1 1-1.15 1.1 1.12 1.12 0 0 1 1.15-1.1M15.2 12.27a1.1 1.1 0 1 1-1.2 1.11 1.12 1.12 0 0 1 1.15-1.1M12.94 14.46a1.1 1.1 0 1 1-1.15 1.1 1.12 1.12 0 0 1 1.15-1.1M7.17 7.81A1.1 1.1 0 1 1 6 8.91a1.12 1.12 0 0 1 1.15-1.1M9.95 3.26a1.12 1.12 0 0 1 1.15 1.1 1.15 1.15 0 0 1-2.29 0 1.12 1.12 0 0 1 1.15-1.1M9.95 9.09a1.1 1.1 0 1 1-1.15 1.1 1.12 1.12 0 0 1 1.15-1.1" fill-rule="evenodd"/></svg>