<svg xmlns="http://www.w3.org/2000/svg" viewBox="0 0 20 20"><path d="M9.94 5.33a1.67 1.67 0 1 0-1.63-1.66 1.65 1.65 0 0 0 1.63 1.66m0-2.67a1 1 0 1 1-1 1 1 1 0 0 1 1-1M14.57 6a1.67 1.67 0 1 0-1.63-1.67A1.65 1.65 0 0 0 14.57 6m0-2.67a1 1 0 1 1-1 1 1 1 0 0 1 1-1M5.43 6A1.67 1.67 0 1 0 3.8 4.33 1.65 1.65 0 0 0 5.43 6m0-2.67a1 1 0 1 1-1 1 1 1 0 0 1 1-1m12 8.21L17 8.13a1.65 1.65 0 0 0-1.62-1.46h-1.62a1.59 1.59 0 0 0-.54.1.34.34 0 0 0-.2.43.32.32 0 0 0 .42.2 1 1 0 0 1 .33-.06h1.61a1 1 0 0 1 1 .88l.42 3.42a.33.33 0 0 1-.08.26.32.32 0 0 1-.24.11h-.28a.33.33 0 0 0-.33.31l-.3 4.36h-2l-.07-1a.33.33 0 0 0-.35-.31.33.33 0 0 0-.3.36l.09 1.27a.33.33 0 0 0 .33.31h2.61a.33.33 0 0 0 .32-.31l.3-4.36a1 1 0 0 0 .67-.34 1 1 0 0 0 .24-.79m-4.47 2.73l-.47-2.45a1.11 1.11 0 0 0 .47-1.05l-.44-3.12A1.74 1.74 0 0 0 10.83 6H9.17a1.74 1.74 0 0 0-1.66 1.61l-.43 3.17a1.1 1.1 0 0 0 .47 1l-.47 2.45a.34.34 0 0 0 .07.28.32.32 0 0 0 .25.12h1.1l.5 3.09a.33.33 0 0 0 .32.28h1.3a.33.33 0 0 0 .32-.27l.53-3.06h1.11a.32.32 0 0 0 .25-.12.34.34 0 0 0 .07-.28m-1.16-2.58l.47 2.31h-1a.33.33 0 0 0-.32.28l-.53 3.06h-.74l-.53-3.06a.33.33 0 0 0-.32-.28h-1l.45-2.31a.33.33 0 0 0-.22-.38.41.41 0 0 1-.28-.44l.43-3.17a1.09 1.09 0 0 1 1-1h1.67a1.09 1.09 0 0 1 1 1l.43 3.15a.41.41 0 0 1-.28.45.33.33 0 0 0-.24.39m-4.87 3.64a.33.33 0 0 0-.35.31l-.07 1h-2l-.3-4.36A.33.33 0 0 0 3.8 12h-.24a.32.32 0 0 1-.24-.11.33.33 0 0 1-.08-.26l.42-3.42a1 1 0 0 1 1-.88h1.58a.92.92 0 0 1 .25 0 .33.33 0 0 0 .4-.24.33.33 0 0 0-.23-.41 1.57 1.57 0 0 0-.41-.06H4.63A1.65 1.65 0 0 0 3 8.13l-.42 3.42a1 1 0 0 0 .24.79 1 1 0 0 0 .67.34L3.81 17a.33.33 0 0 0 .32.31h2.61a.33.33 0 0 0 .32-.31l.09-1.33a.33.33 0 0 0-.3-.36" fill-rule="evenodd"/></svg>