<svg xmlns="http://www.w3.org/2000/svg" viewBox="0 0 20 20"><path d="M19 4.43a7.73 7.73 0 0 1-1.85 1.91v.48a10.48 10.48 0 0 1-.43 3 10.71 10.71 0 0 1-1.32 2.84A11.15 11.15 0 0 1 13.3 15a9.38 9.38 0 0 1-2.95 1.67 10.78 10.78 0 0 1-3.69.62A10.24 10.24 0 0 1 1 15.65a7.89 7.89 0 0 0 .89 0 7.22 7.22 0 0 0 4.58-1.58A3.7 3.7 0 0 1 3 11.56a4.67 4.67 0 0 0 .7.06 3.82 3.82 0 0 0 1-.13 3.63 3.63 0 0 1-2.12-1.27 3.56 3.56 0 0 1-.84-2.35 3.66 3.66 0 0 0 1.66.43A3.68 3.68 0 0 1 2.2 7a3.7 3.7 0 0 1 .06-3.62 10.45 10.45 0 0 0 3.36 2.71 10.28 10.28 0 0 0 4.24 1.14 4.1 4.1 0 0 1-.09-.84 3.55 3.55 0 0 1 1.08-2.61 3.7 3.7 0 0 1 5.3.09A7.23 7.23 0 0 0 18.5 3a3.58 3.58 0 0 1-1.62 2A7.35 7.35 0 0 0 19 4.43z"/></svg>